<svg xmlns="http://www.w3.org/2000/svg" width="59" height="52.257" viewBox="0 0 59 52.257">
    <defs>
        <style>
            .cls-1{fill:#83c225}
        </style>
    </defs>
    <g id="noun_Caution_976330" transform="translate(-15 -19)">
        <g id="Group_402" data-name="Group 402" transform="translate(15 19)">
            <path id="Path_195" d="M44.5 19a4.781 4.781 0 0 0-4.188 2.5L16.475 61.775A9.1 9.1 0 0 0 15 66.305a4.951 4.951 0 0 0 4.925 4.952h49.15A4.951 4.951 0 0 0 74 66.305a9.1 9.1 0 0 0-1.475-4.53L48.688 21.5A4.781 4.781 0 0 0 44.5 19zm0 1.686a2.866 2.866 0 0 1 2.739 1.659L71.05 62.618c.006.01.02.016.026.026a7.614 7.614 0 0 1 1.238 3.661 3.239 3.239 0 0 1-3.24 3.266H19.925a3.239 3.239 0 0 1-3.24-3.266 7.614 7.614 0 0 1 1.238-3.661l.026-.026 23.812-40.273a2.866 2.866 0 0 1 2.739-1.659zm-.105 15.145a.843.843 0 0 0-.738.869v16.857a.843.843 0 1 0 1.686 0V36.7a.843.843 0 0 0-.948-.869zm.105 21.1a3.371 3.371 0 1 0 3.371 3.369 3.384 3.384 0 0 0-3.371-3.371zm0 1.686a1.686 1.686 0 1 1-1.686 1.683 1.673 1.673 0 0 1 1.686-1.686z" class="cls-1" data-name="Path 195" transform="translate(-15 -19)"/>
        </g>
    </g>
</svg>
