<svg xmlns="http://www.w3.org/2000/svg" width="85.545" height="79.853" viewBox="0 0 85.545 79.853">
    <defs>
        <style>
            .cls-1{fill:#83c225}
        </style>
    </defs>
    <g id="noun_chat_1716706" transform="translate(-30.23 -51.283)">
        <g id="Camada_2" data-name="Camada 2" transform="translate(30.23 51.283)">
            <g id="Your_Icon" data-name="Your Icon">
                <path id="Path_193" d="M34.337 26.919a42.963 42.963 0 0 0-19.66 4.57c-.585.293-1.148.608-1.7.938C5.073 37.057 0 44.2 0 52.2c0 6.04 2.919 11.863 8.239 16.425v15.412a2.54 2.54 0 0 0 .886 1.973 2.456 2.456 0 0 0 1.568.563 2.613 2.613 0 0 0 1.246-.323l6.408-4.179a.753.753 0 1 0-.825-1.261l-6.349 4.15a.973.973 0 0 1-1.433-.86V67.927l-.27-.227C4.33 63.394 1.5 57.894 1.5 52.2c0-7.143 4.367-13.559 11.278-17.919.51-.33 1.043-.638 1.584-.938a41.271 41.271 0 0 1 19.975-4.923c18.1 0 32.828 10.67 32.828 23.779S52.435 75.97 34.337 75.97a45.528 45.528 0 0 1-6.476-.458.746.746 0 0 0-.863.735.759.759 0 0 0 .645.75 48.38 48.38 0 0 0 6.694.473c12.313 0 23.141-4.795 29.2-11.991.33-.39.645-.788.938-1.186a20.128 20.128 0 0 0 4.195-12.1c-.005-13.928-15.41-25.274-34.333-25.274z" class="cls-1" data-name="Path 193" transform="translate(0 -6.72)"/>
                <path id="Path_194" d="M91.642 25.28c0 6.04-2.927 11.863-8.239 16.425v15.412a2.5 2.5 0 0 1-.893 1.973 2.436 2.436 0 0 1-1.56.563 2.642 2.642 0 0 1-1.253-.323L76.5 57.248a.751.751 0 0 1-.264-.96.751.751 0 0 1 1.084-.3l3.139 2.05a.97.97 0 0 0 .968-.023.947.947 0 0 0 .473-.833V41.007l.263-.225c5.147-4.307 7.977-9.807 7.977-15.5C90.141 12.171 75.412 1.5 57.3 1.5c-14.82 0-27.388 7.158-31.44 16.958a.744.744 0 0 1-1.433-.285.715.715 0 0 1 .06-.3C28.784 7.549 41.871 0 57.3 0c18.944 0 34.342 11.345 34.342 25.28z" class="cls-1" data-name="Path 194" transform="translate(-6.097)"/>
                <circle id="Ellipse_16" cx="1.36" cy="1.36" r="1.36" class="cls-1" data-name="Ellipse 16" transform="translate(21.734 43.868)"/>
                <circle id="Ellipse_17" cx="1.36" cy="1.36" r="1.36" class="cls-1" data-name="Ellipse 17" transform="translate(32.971 43.868)"/>
                <circle id="Ellipse_18" cx="1.36" cy="1.36" r="1.36" class="cls-1" data-name="Ellipse 18" transform="translate(44.211 43.868)"/>
            </g>
        </g>
    </g>
</svg>
