<svg xmlns="http://www.w3.org/2000/svg" width="98.396" height="120.946" viewBox="0 0 98.396 120.946">
    <defs>
        <style>
            .cls-1{fill:#83c225}
        </style>
    </defs>
    <g id="noun_Company_owner_1234256" data-name="noun_Company owner_1234256" transform="translate(-14 -5.8)">
        <g id="Group_176" data-name="Group 176" transform="translate(14 5.8)">
            <path id="Path_112" d="M92.581 77.411V19.466h-15.99V5.8H30.126v13.666H14v93.614h33.072v13.666H112.4v-49.2H92.581zm-45.508 32.8h-30.34V22.2h16.126V8.533h41V22.2h16.125v55.347H47.072zm62.591 13.666H49.805V80.144h59.858z" class="cls-1" data-name="Path 112" transform="translate(-14 -5.8)"/>
            <path id="Rectangle_49" d="M0 0h14.349v2.733H0z" class="cls-1" data-name="Rectangle 49" transform="translate(16.399 27.606)"/>
            <path id="Rectangle_50" d="M0 0h14.349v2.733H0z" class="cls-1" data-name="Rectangle 50" transform="translate(46.465 27.606)"/>
            <path id="Rectangle_51" d="M0 0h14.349v2.733H0z" class="cls-1" data-name="Rectangle 51" transform="translate(16.399 42.638)"/>
            <path id="Rectangle_52" d="M0 0h14.349v2.733H0z" class="cls-1" data-name="Rectangle 52" transform="translate(46.465 42.638)"/>
            <path id="Rectangle_53" d="M0 0h14.349v2.733H0z" class="cls-1" data-name="Rectangle 53" transform="translate(16.399 57.671)"/>
            <path id="Rectangle_54" d="M0 0h14.349v2.733H0z" class="cls-1" data-name="Rectangle 54" transform="translate(46.465 57.671)"/>
            <path id="Rectangle_55" d="M0 0h14.349v2.733H0z" class="cls-1" data-name="Rectangle 55" transform="translate(16.399 72.704)"/>
            <path id="Rectangle_56" d="M0 0h14.349v2.733H0z" class="cls-1" data-name="Rectangle 56" transform="translate(16.399 87.737)"/>
            <path id="Path_113" d="M78.566 92.846a5.076 5.076 0 0 0-2.733-4.51L70.366 85.6a1.5 1.5 0 0 1-.82-1.367v-1.91c.137-.137.273-.41.41-.547A18.369 18.369 0 0 0 71.6 78.5a2.1 2.1 0 0 0 1.367-2.05v-2.19a2.195 2.195 0 0 0-.683-1.5v-1.64a5.149 5.149 0 0 0-1.093-3.69 7.084 7.084 0 0 0-5.6-1.913 7.606 7.606 0 0 0-5.6 1.913 5.723 5.723 0 0 0-1.23 3.69v1.64a2.055 2.055 0 0 0-.547 1.5v2.323a2.2 2.2 0 0 0 .82 1.777 11.574 11.574 0 0 0 2.05 4.1v1.913a1.5 1.5 0 0 1-.82 1.367L55.2 88.473a4.9 4.9 0 0 0-2.6 4.373v2.324h25.966v-2.324z" class="cls-1" data-name="Path 113" transform="translate(.151 16.073)"/>
        </g>
    </g>
</svg>
