<svg xmlns="http://www.w3.org/2000/svg" width="40.35" height="40.35" viewBox="0 0 40.35 40.35">
    <defs>
        <style>
            .cls-1{fill:#fff}
        </style>
    </defs>
    <g id="noun_User_894931" transform="translate(36 -49)">
        <path id="Path_240" d="M25.175 5A20.162 20.162 0 0 0 11.97 40.409a.678.678 0 0 0 .169.146 20.118 20.118 0 0 0 26.075 0 .665.665 0 0 0 .166-.144A20.161 20.161 0 0 0 25.175 5zM13.283 39.762a12.653 12.653 0 0 1 11.89-8.511 12.652 12.652 0 0 1 11.89 8.512 18.786 18.786 0 0 1-23.784 0zm11.89-9.862a7.366 7.366 0 1 1 7.368-7.366 7.374 7.374 0 0 1-7.368 7.366zm12.982 8.9a14.038 14.038 0 0 0-9.294-8.377 8.711 8.711 0 1 0-7.372 0A14.038 14.038 0 0 0 12.2 38.8a18.83 18.83 0 1 1 25.959 0z" class="cls-1" data-name="Path 240" transform="translate(-41 44)"/>
    </g>
</svg>
