<svg xmlns="http://www.w3.org/2000/svg" width="45.467" height="58.197" viewBox="0 0 45.467 58.197">
    <defs>
        <style>
            .cls-1{fill:#83c225}
        </style>
    </defs>
    <g id="noun_doc_520463" transform="translate(-3.5)">
        <g id="Group_432" data-name="Group 432" transform="translate(3.5)">
            <g id="Group_431" data-name="Group 431">
                <path id="Path_205" d="M13.821 17.374a3.253 3.253 0 0 0 1.293-.727 4.029 4.029 0 0 0 .975-1.61 5.968 5.968 0 0 0 .28-1.939 6.755 6.755 0 0 0-.3-2.155 3.978 3.978 0 0 0-.869-1.476 3.047 3.047 0 0 0-1.375-.84 6.618 6.618 0 0 0-1.733-.175H8.727v9.113h3.463a5.621 5.621 0 0 0 1.631-.191zm-3.252-1.342V9.994h.831a8.305 8.305 0 0 1 1.509.087 1.744 1.744 0 0 1 .853.429 2.06 2.06 0 0 1 .522.88 5.474 5.474 0 0 1 .187 1.624 5.9 5.9 0 0 1-.187 1.67 1.908 1.908 0 0 1-.484.878 1.682 1.682 0 0 1-.742.378 4.959 4.959 0 0 1-1.111.089h-1.378z" class="cls-1" data-name="Path 205" transform="translate(.779 6.919)"/>
                <path id="Path_206" d="M18.014 17.791a4.253 4.253 0 0 0 3.208-1.248 4.778 4.778 0 0 0 1.2-3.452 4.8 4.8 0 0 0-1.208-3.475 4.278 4.278 0 0 0-3.223-1.249 5 5 0 0 0-1.964.358 3.565 3.565 0 0 0-1.177.82A4.28 4.28 0 0 0 14 10.8a5.784 5.784 0 0 0-.416 2.337 4.7 4.7 0 0 0 1.2 3.415 4.268 4.268 0 0 0 3.23 1.239zm-1.84-7.071a2.338 2.338 0 0 1 1.833-.78 2.331 2.331 0 0 1 1.826.771 3.432 3.432 0 0 1 .686 2.337 3.484 3.484 0 0 1-.706 2.379 2.458 2.458 0 0 1-3.621-.005 3.415 3.415 0 0 1-.715-2.346 3.438 3.438 0 0 1 .697-2.356z" class="cls-1" data-name="Path 206" transform="translate(4.755 6.85)"/>
                <path id="Path_207" d="M23.225 9.939a1.885 1.885 0 0 1 1.922 1.529l1.82-.435a3.594 3.594 0 0 0-.933-1.679 3.794 3.794 0 0 0-2.717-.988 4.027 4.027 0 0 0-3.087 1.259 4.98 4.98 0 0 0-1.175 3.534 4.738 4.738 0 0 0 1.169 3.39 3.917 3.917 0 0 0 2.984 1.242 3.9 3.9 0 0 0 2.421-.724 3.994 3.994 0 0 0 1.364-2.217l-1.784-.566a2.727 2.727 0 0 1-.757 1.468 1.855 1.855 0 0 1-1.262.466 2.026 2.026 0 0 1-1.617-.733 3.819 3.819 0 0 1-.622-2.462 3.566 3.566 0 0 1 .631-2.357 2.075 2.075 0 0 1 1.643-.727z" class="cls-1" data-name="Path 207" transform="translate(9.234 6.851)"/>
                <path id="Path_208" d="M48.967 9.024L39.942 0H3.5v58.2h45.467zm-1.819 47.355H5.319V1.819h33.87l7.958 7.958z" class="cls-1" data-name="Path 208" transform="translate(-3.5)"/>
                <path id="Rectangle_134" d="M0 0h27.255v1.819H0z" class="cls-1" data-name="Rectangle 134" transform="translate(9.106 43.723)"/>
                <path id="Rectangle_135" d="M0 0h27.255v1.819H0z" class="cls-1" data-name="Rectangle 135" transform="translate(9.106 37.283)"/>
            </g>
        </g>
    </g>
</svg>
