<svg xmlns="http://www.w3.org/2000/svg" width="158" height="158" viewBox="0 0 158 158">
    <defs>
        <style>
            .cls-1{fill:#fff;stroke:#e6e6e6}.cls-2{fill:#83c225}.cls-3{stroke:none}.cls-4{fill:none}
        </style>
    </defs>
    <g id="Group_529" data-name="Group 529" transform="translate(-861 -332)">
        <g id="Ellipse_19" class="cls-1" data-name="Ellipse 19" transform="translate(861 332)">
            <circle cx="79" cy="79" r="79" class="cls-3"/>
            <circle cx="79" cy="79" r="78.5" class="cls-4"/>
        </g>
        <g id="noun_clip_board_1558232" data-name="noun_clip board_1558232" transform="translate(890 361)">
            <g id="Group_482" data-name="Group 482" transform="translate(0 -952.362)">
                <path id="Path_225" d="M50 955.362a8.933 8.933 0 0 0-8.406 6H34a1.039 1.039 0 0 0-1 1v3H18a1.006 1.006 0 0 0-1 1v82a1.039 1.039 0 0 0 1 1h64a1.039 1.039 0 0 0 1-1v-82a1.039 1.039 0 0 0-1-1H67v-3a1.039 1.039 0 0 0-1-1h-7.594a8.933 8.933 0 0 0-8.406-6zm0 2a6.978 6.978 0 0 1 6.781 5.25 1.03 1.03 0 0 0 .969.75H65v8H35v-8h7.25a1.03 1.03 0 0 0 .969-.75 6.978 6.978 0 0 1 6.781-5.25zm-31 10h14v5a1.039 1.039 0 0 0 1 1h32a1.039 1.039 0 0 0 1-1v-5h14v80H19z" class="cls-2" data-name="Path 225"/>
            </g>
        </g>
    </g>
</svg>
