<svg xmlns="http://www.w3.org/2000/svg" width="73.905" height="87.724" viewBox="0 0 73.905 87.724">
    <defs>
        <style>
            .cls-1{fill:#83c225}
        </style>
    </defs>
    <g id="noun_Email_1319126" transform="translate(-6.204 -2.503)">
        <g id="Group_199" data-name="Group 199" transform="translate(6.204 2.503)">
            <g id="Group_191" data-name="Group 191">
                <g id="Group_179" data-name="Group 179" transform="translate(0 36.146)">
                    <g id="Group_178" data-name="Group 178">
                        <path id="Path_114" d="M79.176 73.444H7.137a.933.933 0 0 1-.933-.933V22.8a.933.933 0 0 1 1.496-.746l35.457 26.695 35.457-26.695a.933.933 0 0 1 1.495.746v49.711a.933.933 0 0 1-.933.933zm-71.1-1.867h70.166V24.672L43.718 50.661a.93.93 0 0 1-1.123 0L8.071 24.672z" class="cls-1" data-name="Path 114" transform="translate(-6.204 -21.866)"/>
                    </g>
                </g>
                <g id="Group_190" data-name="Group 190">
                    <g id="Group_181" data-name="Group 181" transform="translate(0 26.359)">
                        <g id="Group_180" data-name="Group 180">
                            <path id="Path_115" d="M16.888 35.62a.933.933 0 0 1-.561-.188l-9.751-7.343a.932.932 0 0 1-.1-1.4l9.751-9.789a.934.934 0 0 1 1.6.658v17.13a.933.933 0 0 1-.933.933zm-8.332-8.377l7.4 5.573v-13z" class="cls-1" data-name="Path 115" transform="translate(-6.204 -16.624)"/>
                        </g>
                    </g>
                    <g id="Group_183" data-name="Group 183" transform="translate(21.011)">
                        <g id="Group_182" data-name="Group 182">
                            <path id="Path_116" d="M48.41 19.424H18.393a.933.933 0 0 1-.662-1.591L32.74 2.768a.958.958 0 0 1 1.323 0l15.008 15.065a.933.933 0 0 1-.662 1.591zm-27.769-1.867h25.521L33.4 4.748z" class="cls-1" data-name="Path 116" transform="translate(-17.46 -2.503)"/>
                        </g>
                    </g>
                    <g id="Group_185" data-name="Group 185" transform="translate(62.288 26.36)">
                        <g id="Group_184" data-name="Group 184">
                            <path id="Path_117" d="M40.506 35.619a.933.933 0 0 1-.933-.933v-17.13a.934.934 0 0 1 1.6-.658l9.751 9.787a.932.932 0 0 1-.1 1.4l-9.751 7.343a.933.933 0 0 1-.567.191zm.933-15.8v13l7.4-5.573z" class="cls-1" data-name="Path 117" transform="translate(-39.572 -16.624)"/>
                        </g>
                    </g>
                    <g id="Group_187" data-name="Group 187" transform="translate(0 15.055)">
                        <g id="Group_186" data-name="Group 186">
                            <path id="Path_118" d="M7.137 83.237A.936.936 0 0 1 6.2 82.3V32.592a.938.938 0 0 1 .272-.658l9.479-9.516V11.5a.933.933 0 0 1 .933-.933h11.26a.933.933 0 1 1 0 1.867H17.822V22.8a.938.938 0 0 1-.272.658l-9.479 9.521v47.064l26.7-26.8a.933.933 0 1 1 1.323 1.316L7.8 82.961a.932.932 0 0 1-.663.276z" class="cls-1" data-name="Path 118" transform="translate(-6.204 -10.568)"/>
                        </g>
                    </g>
                    <g id="Group_189" data-name="Group 189" transform="translate(43.749 15.055)">
                        <g id="Group_188" data-name="Group 188">
                            <path id="Path_119" d="M58.864 83.237a.932.932 0 0 1-.662-.275l-28.29-28.4a.933.933 0 0 1 1.323-1.316l26.695 26.8V32.979l-9.479-9.516a.938.938 0 0 1-.272-.658V12.434H37.853a.933.933 0 0 1 0-1.867h11.26a.933.933 0 0 1 .933.933v10.918l9.479 9.516a.938.938 0 0 1 .272.658V82.3a.936.936 0 0 1-.933.933z" class="cls-1" data-name="Path 119" transform="translate(-29.641 -10.568)"/>
                        </g>
                    </g>
                </g>
            </g>
            <g id="Group_198" data-name="Group 198" transform="translate(19.919 25.19)">
                <g id="Group_193" data-name="Group 193">
                    <g id="Group_192" data-name="Group 192">
                        <path id="Path_120" d="M50.008 17.864h-32.2a.933.933 0 0 1 0-1.867h32.2a.933.933 0 0 1 0 1.867z" class="cls-1" data-name="Path 120" transform="translate(-16.875 -15.997)"/>
                    </g>
                </g>
                <g id="Group_195" data-name="Group 195" transform="translate(0 9.333)">
                    <g id="Group_194" data-name="Group 194">
                        <path id="Path_121" d="M50.008 22.864h-32.2a.933.933 0 0 1 0-1.867h32.2a.933.933 0 0 1 0 1.867z" class="cls-1" data-name="Path 121" transform="translate(-16.875 -20.997)"/>
                    </g>
                </g>
                <g id="Group_197" data-name="Group 197" transform="translate(0 18.667)">
                    <g id="Group_196" data-name="Group 196">
                        <path id="Path_122" d="M40.675 27.864H17.808a.933.933 0 0 1 0-1.867h22.867a.933.933 0 1 1 0 1.867z" class="cls-1" data-name="Path 122" transform="translate(-16.875 -25.997)"/>
                    </g>
                </g>
            </g>
        </g>
    </g>
</svg>
