<svg xmlns="http://www.w3.org/2000/svg" width="96.284" height="122.142" viewBox="0 0 96.284 122.142">
    <defs>
        <style>
            .cls-1,.cls-2{fill:none;stroke:#83c225;stroke-width:2px}.cls-1{stroke-linecap:round;stroke-linejoin:round}.cls-2{stroke-miterlimit:10}
        </style>
    </defs>
    <g id="Group_527" data-name="Group 527" transform="translate(-1545.406 -397.411)">
        <path id="Path_135" d="M35.27 78.227c8.734-6.778 18.848-.943 18.848-.943a40.622 40.622 0 0 0 11.773 3.092c11.948.542 25.1-7.738 31.442-14.393s2.376-10.708-.716-9.4c-1.939.821-11.337 7.616-16.891 9.8" class="cls-1" data-name="Path 135" transform="translate(1525.845 428.363)"/>
        <path id="Path_136" d="M33.21 61.339a18.016 18.016 0 0 1 9.153-6.9c5.432-1.852 10.271-3.494 21.957 5.59 8.245 6.376 18.184 3.756 16.856 9.24-1.24 5.136-10.481 4.1-12.227 3.878s-11.459-3.616-11.878-4.734" class="cls-1" data-name="Path 136" transform="translate(1524.306 425.862)"/>
        <path id="Path_137" d="M42.012 85.656L29 89.8a1.258 1.258 0 0 1-1.583-.814 1.287 1.287 0 0 1-.059-.374l-.508-26.66a1.259 1.259 0 0 1 .734-1.17l8.489-3.9a1.258 1.258 0 0 1 1.661.636 1.236 1.236 0 0 1 .086.272l5.013 26.411a1.257 1.257 0 0 1-.821 1.455z" class="cls-1" data-name="Path 137" transform="translate(1519.557 428.69)"/>
        <path id="Path_138" d="M0 21.382L50.723 0 55.2 10.512 7.3 30.646 4.553 31.8z" class="cls-2" data-name="Path 138" transform="rotate(23 -189.797 4083.935)"/>
        <path id="Path_139" d="M16.616 57.223L0 18.731 25.565 7.986 44.568 0l16.474 38.554z" class="cls-2" data-name="Path 139" transform="rotate(23 -222.705 4095.902)"/>
        <path id="Path_140" d="M12.649 14.63L6.2 0 0 2.606l6.391 14.662z" class="cls-2" data-name="Path 140" transform="rotate(23 -251.994 4139.468)"/>
    </g>
</svg>
