<svg xmlns="http://www.w3.org/2000/svg" width="56.457" height="56.457" viewBox="0 0 56.457 56.457">
    <defs>
        <style>
            .cls-1{fill:none;stroke:#83c225}
        </style>
    </defs>
    <g id="noun_User_2242994" transform="translate(-7 -7)">
        <path id="Path_191" d="M35.229 7.5a27.714 27.714 0 0 0-18.322 48.521v.007l.157.137.418.363.007-.021a27.576 27.576 0 0 0 35.479 0l.007.021.418-.363.157-.137v-.007A27.714 27.714 0 0 0 35.229 7.5zm16.732 48.946c-.219.178-.438.363-.664.527-.329.24-.671.466-1.006.692-.212.144-.424.3-.644.438-.377.24-.774.459-1.164.678-.192.11-.377.226-.568.329a28.5 28.5 0 0 1-1.8.876A27.016 27.016 0 0 1 17.681 55.8c.062-.24.144-.472.219-.705s.137-.466.219-.7c.1-.267.212-.52.322-.781.1-.219.178-.445.281-.664.123-.26.26-.507.39-.76.11-.205.212-.418.329-.623.144-.253.315-.493.472-.739.123-.192.24-.39.377-.575.171-.246.363-.479.555-.712.137-.171.267-.356.411-.52.205-.24.424-.466.644-.7.144-.151.274-.308.424-.452.253-.246.52-.479.787-.712.13-.116.253-.233.383-.349q.616-.5 1.273-.965c.24.445.5.876.767 1.287 0 .007.007.007.007.014.171.26.349.513.527.76a16.472 16.472 0 0 0 1.143 1.39c.2.219.4.424.616.623a12.939 12.939 0 0 0 2 1.575c.233.151.472.288.712.418a10.637 10.637 0 0 0 1.493.657 9.643 9.643 0 0 0 6.388 0 10.637 10.637 0 0 0 1.493-.657c.24-.13.479-.267.712-.418a12.621 12.621 0 0 0 2-1.575c.212-.2.418-.411.616-.623a16.471 16.471 0 0 0 1.143-1.39 16.459 16.459 0 0 0 1.02-1.56c.1-.164.192-.329.281-.5a15.947 15.947 0 0 1 1.273.965c.13.11.253.233.383.342.267.233.541.466.794.719.144.144.281.3.424.452.219.233.445.459.65.7.144.171.274.349.411.52.185.24.377.466.555.712.13.185.246.383.377.575.157.246.322.486.472.739.116.205.219.411.329.623.137.253.274.5.4.76.1.219.185.438.281.664.11.26.226.513.322.781.082.226.151.466.219.7s.151.466.212.7c-.278.219-.552.431-.826.65zm1.39-1.157c-.055-.2-.137-.383-.2-.582q-.113-.359-.246-.719c-.1-.281-.226-.561-.342-.835-.1-.226-.192-.459-.3-.685-.13-.274-.281-.541-.424-.808-.116-.212-.233-.431-.356-.644-.157-.267-.335-.52-.507-.781-.137-.2-.26-.4-.4-.6-.185-.253-.39-.5-.589-.746-.151-.185-.288-.37-.445-.548-.219-.246-.459-.486-.692-.726-.157-.157-.3-.322-.466-.479-.267-.253-.555-.493-.835-.733-.144-.123-.281-.253-.424-.37a20.86 20.86 0 0 0-1.369-.993l-.315-.212-.178.335c-.13.246-.267.493-.4.733a.746.746 0 0 1-.041.075c-.151.26-.315.52-.479.774s-.335.493-.507.726a13.95 13.95 0 0 1-1.1 1.328c-.192.205-.383.4-.582.6a12.634 12.634 0 0 1-1.89 1.493c-.219.137-.445.267-.671.39a9.323 9.323 0 0 1-1.4.616 8.918 8.918 0 0 1-5.936 0 9.64 9.64 0 0 1-1.4-.616 12.856 12.856 0 0 1-.671-.39A11.976 11.976 0 0 1 28.3 49.4c-.2-.192-.4-.39-.589-.6a15.069 15.069 0 0 1-1.1-1.328 15.686 15.686 0 0 1-.507-.733 18.51 18.51 0 0 1-.924-1.582l-.178-.335-.315.212c-.472.315-.931.644-1.369.993-.151.116-.281.246-.424.37-.281.24-.568.479-.835.733-.157.151-.308.315-.459.472-.233.24-.472.472-.692.726-.157.178-.294.363-.445.548-.2.246-.4.493-.589.746-.144.192-.267.4-.4.6-.171.26-.349.513-.507.781-.123.212-.24.424-.356.644-.144.267-.294.534-.424.808-.11.226-.205.452-.3.685-.123.274-.24.555-.349.835-.089.24-.164.479-.246.719-.062.192-.137.383-.2.582a27.043 27.043 0 1 1 36.259.014z" class="cls-1" data-name="Path 191"/>
        <path id="Path_192" d="M41.936 26.81A13.162 13.162 0 1 0 55.1 39.969 13.179 13.179 0 0 0 41.936 26.81zm0 25.64a12.478 12.478 0 1 1 12.481-12.474A12.5 12.5 0 0 1 41.936 52.45z" class="cls-1" data-name="Path 192" transform="translate(-6.707 -6.089)"/>
    </g>
</svg>
