<svg xmlns="http://www.w3.org/2000/svg" width="93.459" height="115.625" viewBox="0 0 93.459 115.625">
    <defs>
        <style>
            .cls-1{fill:#83c225}
        </style>
    </defs>
    <g id="noun_documents_2127055" transform="translate(-58.7 -11.8)">
        <g id="Group_523" data-name="Group 523" transform="translate(58.7 11.8)">
            <g id="Group_522" data-name="Group 522">
                <g id="Group_510" data-name="Group 510" transform="translate(10.043 11.768)">
                    <path id="Path_226" d="M181.072 165.457h-76.327a3.54 3.54 0 0 1-3.545-3.545V65.145a3.54 3.54 0 0 1 3.545-3.545h76.327a3.54 3.54 0 0 1 3.545 3.545v96.768a3.54 3.54 0 0 1-3.545 3.544zm-76.3-101.494a1.185 1.185 0 0 0-1.182 1.182v96.768a1.185 1.185 0 0 0 1.182 1.182H181.1a1.2 1.2 0 0 0 1.182-1.182V65.145a1.2 1.2 0 0 0-1.182-1.182z" class="cls-1" data-name="Path 226" transform="translate(-101.2 -61.6)"/>
                </g>
                <g id="Group_511" data-name="Group 511" transform="translate(54.492 23.016)">
                    <path id="Path_227" d="M305.038 140.7a15.75 15.75 0 1 1 15.738-15.738 15.763 15.763 0 0 1-15.738 15.738zm0-29.137a13.387 13.387 0 1 0 13.375 13.4 13.4 13.4 0 0 0-13.375-13.4z" class="cls-1" data-name="Path 227" transform="translate(-289.3 -109.2)"/>
                </g>
                <g id="Group_512" data-name="Group 512" transform="translate(62.293 32.256)">
                    <path id="Path_228" d="M326.3 161.32h-.165a1.194 1.194 0 0 1-.874-.591l-2.788-4.821a1.175 1.175 0 0 1 2.032-1.182l2.009 3.5 9.57-9.57a1.186 1.186 0 0 1 1.678 1.678l-10.656 10.656a1.086 1.086 0 0 1-.806.33z" class="cls-1" data-name="Path 228" transform="translate(-322.311 -148.3)"/>
                </g>
                <g id="Group_513" data-name="Group 513" transform="translate(17.558 37.147)">
                    <path id="Path_229" d="M156.442 171.363h-22.26a1.182 1.182 0 0 1 0-2.363h22.284a1.17 1.17 0 0 1 1.182 1.182 1.19 1.19 0 0 1-1.206 1.181z" class="cls-1" data-name="Path 229" transform="translate(-133 -169)"/>
                </g>
                <g id="Group_514" data-name="Group 514" transform="translate(17.558 46.411)">
                    <path id="Path_230" d="M161.073 210.563h-26.891a1.182 1.182 0 0 1 0-2.363H161.1a1.17 1.17 0 0 1 1.182 1.182 1.19 1.19 0 0 1-1.209 1.181z" class="cls-1" data-name="Path 230" transform="translate(-133 -208.2)"/>
                </g>
                <g id="Group_515" data-name="Group 515" transform="translate(17.558 55.674)">
                    <path id="Path_231" d="M165.941 249.763h-31.76a1.182 1.182 0 0 1 0-2.363h31.76a1.17 1.17 0 0 1 1.182 1.182 1.185 1.185 0 0 1-1.182 1.181z" class="cls-1" data-name="Path 231" transform="translate(-133 -247.4)"/>
                </g>
                <g id="Group_516" data-name="Group 516" transform="translate(17.558 64.937)">
                    <path id="Path_232" d="M187.54 288.963h-53.358a1.182 1.182 0 1 1 0-2.363h53.358a1.182 1.182 0 1 1 0 2.363z" class="cls-1" data-name="Path 232" transform="translate(-133 -286.6)"/>
                </g>
                <g id="Group_517" data-name="Group 517" transform="translate(17.558 74.224)">
                    <path id="Path_233" d="M171 328.263h-36.818a1.182 1.182 0 0 1 0-2.363H171a1.182 1.182 0 0 1 0 2.363z" class="cls-1" data-name="Path 233" transform="translate(-133 -325.9)"/>
                </g>
                <g id="Group_518" data-name="Group 518" transform="translate(17.558 83.487)">
                    <path id="Path_234" d="M193.707 367.463h-59.525a1.182 1.182 0 0 1 0-2.363h59.549a1.17 1.17 0 0 1 1.182 1.182 1.19 1.19 0 0 1-1.206 1.181z" class="cls-1" data-name="Path 234" transform="translate(-133 -365.1)"/>
                </g>
                <g id="Group_519" data-name="Group 519" transform="translate(17.558 92.727)">
                    <path id="Path_235" d="M158.876 406.563h-24.694a1.182 1.182 0 0 1 0-2.363H158.9a1.17 1.17 0 0 1 1.182 1.182 1.19 1.19 0 0 1-1.206 1.181z" class="cls-1" data-name="Path 235" transform="translate(-133 -404.2)"/>
                </g>
                <g id="Group_520" data-name="Group 520" transform="translate(17.558 101.99)">
                    <path id="Path_236" d="M193.707 445.763h-59.525a1.182 1.182 0 0 1 0-2.363h59.549a1.17 1.17 0 0 1 1.182 1.182 1.19 1.19 0 0 1-1.206 1.181z" class="cls-1" data-name="Path 236" transform="translate(-133 -443.4)"/>
                </g>
                <g id="Group_521" data-name="Group 521">
                    <path id="Path_237" d="M69.925 115.657h-7.657a3.56 3.56 0 0 1-3.568-3.545V15.368a3.58 3.58 0 0 1 3.568-3.568H138.6a3.56 3.56 0 0 1 3.545 3.568v9.382a1.17 1.17 0 0 1-1.182 1.182H72.311a1.185 1.185 0 0 0-1.182 1.182v87.363a1.205 1.205 0 0 1-1.204 1.18zM62.268 14.163a1.21 1.21 0 0 0-1.205 1.205v96.744a1.206 1.206 0 0 0 1.205 1.182h6.475V27.113a3.54 3.54 0 0 1 3.545-3.545h67.466v-8.2a1.206 1.206 0 0 0-1.182-1.205z" class="cls-1" data-name="Path 237" transform="translate(-58.7 -11.8)"/>
                </g>
            </g>
        </g>
    </g>
</svg>
