<svg xmlns="http://www.w3.org/2000/svg" width="86.089" height="86.218" viewBox="0 0 86.089 86.218">
    <defs>
        <style>
            .cls-1{fill:#83c225}
        </style>
    </defs>
    <g id="noun_Question_243281" transform="translate(-16.7 -16.7)">
        <g id="Group_427" data-name="Group 427" transform="translate(16.7 16.7)">
            <path id="Path_199" d="M16.7 59.874a43.03 43.03 0 0 0 43.045 43.045 42.569 42.569 0 0 0 19.777-4.783l23.267 4.783-4.783-23.4a42.569 42.569 0 0 0 4.783-19.777 43.045 43.045 0 1 0-86.089.129zm2.973-.129A40.2 40.2 0 1 1 95.55 78.229l-.517.9.129.9 3.878 19-19.13-3.866-.9-.129-.9.517a39.352 39.352 0 0 1-18.355 4.524 40.079 40.079 0 0 1-40.082-40.33z" class="cls-1" data-name="Path 199" transform="translate(-16.7 -16.7)"/>
            <path id="Path_200" d="M51.315 57.5h-1.939a.745.745 0 0 0-.776.776v1.939a.745.745 0 0 0 .776.776h1.939a.745.745 0 0 0 .776-.776v-1.939c.128-.388-.259-.776-.776-.776z" class="cls-1" data-name="Path 200" transform="translate(-7.365 -4.761)"/>
            <path id="Path_201" d="M57.948 41.768a8.674 8.674 0 0 0-6.075-2.068 8.322 8.322 0 0 0-5.817 1.939 8.115 8.115 0 0 0-2.456 4.783.969.969 0 0 0 .129.646c.129.129.388.259.517.388l1.68.259a.972.972 0 0 0 .9-.646 5.525 5.525 0 0 1 1.68-3.232A4.679 4.679 0 0 1 52 42.544a5.307 5.307 0 0 1 3.619 1.422 4.229 4.229 0 0 1 1.422 3.361 3.648 3.648 0 0 1-.517 1.939 8.662 8.662 0 0 1-2.2 2.327A20.819 20.819 0 0 0 52 53.79a9.069 9.069 0 0 0-1.293 2.068 9.036 9.036 0 0 0-.517 3.49.745.745 0 0 0 .776.776h1.424a.834.834 0 0 0 .776-.776 6.3 6.3 0 0 1 .259-1.939 4.368 4.368 0 0 1 .776-1.551 14.78 14.78 0 0 1 2.068-2.068 16.509 16.509 0 0 0 3.1-3.49 6.638 6.638 0 0 0 .776-3.232 6.279 6.279 0 0 0-2.197-5.3z" class="cls-1" data-name="Path 201" transform="translate(-8.828 -9.97)"/>
        </g>
    </g>
</svg>
