<svg xmlns="http://www.w3.org/2000/svg" width="32" height="20.032" viewBox="0 0 32 20.032">
    <defs>
        <style>
            .cls-1{fill:#333}
        </style>
    </defs>
    <g id="noun_menu_549980" transform="translate(-5 -21.83)">
        <path id="Path_33" d="M5.754 23.338H23.98a.754.754 0 1 0 0-1.508H5.754a.754.754 0 1 0 0 1.508z" class="cls-1" data-name="Path 33"/>
        <path id="Path_34" d="M36.246 47.879H5.754a.754.754 0 0 0 0 1.508h30.492a.754.754 0 1 0 0-1.508z" class="cls-1" data-name="Path 34" transform="translate(0 -16.787)"/>
        <path id="Path_35" d="M36.246 73.93H5.754a.754.754 0 0 0 0 1.508h30.492a.754.754 0 1 0 0-1.508z" class="cls-1" data-name="Path 35" transform="translate(0 -33.576)"/>
    </g>
</svg>
