<svg xmlns="http://www.w3.org/2000/svg" width="18.515" height="20.692" viewBox="0 0 18.515 20.692">
    <defs>
        <style>
            .cls-1{fill:#83c225}
        </style>
    </defs>
    <g id="noun_Trash_2255044" transform="translate(-16.099 -12.7)">
        <g id="Group_472" data-name="Group 472" transform="translate(17.317 14.974)">
            <path id="Path_220" d="M33.193 38.218H22.687L19.9 19.8h16.08zm-9.674-.961h8.873l2.5-16.5H21.021z" class="cls-1" data-name="Path 220" transform="translate(-19.9 -19.8)"/>
        </g>
        <g id="Group_473" data-name="Group 473" transform="translate(16.1 14.974)">
            <path id="Rectangle_144" d="M0 0h18.514v.961H0z" class="cls-1" data-name="Rectangle 144"/>
        </g>
        <g id="Group_474" data-name="Group 474" transform="translate(21.321 12.7)">
            <path id="Path_221" d="M40.472 15.935H32.4l1.666-3.235h4.741zm-6.5-.961H38.9l-.673-1.313h-3.585z" class="cls-1" data-name="Path 221" transform="translate(-32.4 -12.7)"/>
        </g>
        <g id="Group_475" data-name="Group 475" transform="translate(24.909 18.914)">
            <path id="Path_222" d="M44.08 43.856a.493.493 0 0 1-.48-.48V32.58a.493.493 0 0 1 .48-.48.493.493 0 0 1 .48.48v10.795a.472.472 0 0 1-.48.481z" class="cls-1" data-name="Path 222" transform="translate(-43.6 -32.1)"/>
        </g>
        <g id="Group_476" data-name="Group 476" transform="translate(27.247 18.914)">
            <path id="Path_223" d="M51.38 43.856h-.032a.518.518 0 0 1-.448-.513l.865-10.795a.482.482 0 0 1 .961.064l-.865 10.795a.487.487 0 0 1-.481.449z" class="cls-1" data-name="Path 223" transform="translate(-50.9 -32.1)"/>
        </g>
        <g id="Group_477" data-name="Group 477" transform="translate(21.638 18.911)">
            <path id="Path_224" d="M34.738 43.848a.487.487 0 0 1-.48-.448l-.865-10.795a.482.482 0 0 1 .961-.064l.865 10.795a.47.47 0 0 1-.448.512z" class="cls-1" data-name="Path 224" transform="translate(-33.389 -32.089)"/>
        </g>
    </g>
</svg>
