<svg xmlns="https://www.w3.org/2000/svg" viewBox="0 0 116.53479 86.85136">
  <defs>
    <style>
      .cls-1 {
        fill: none;
      }

      .cls-2 {
        fill: #f6d500;
      }

      .cls-3 {
        fill: #83c225;
      }

      .cls-4 {
        fill: #da251d;
      }
    </style>
  </defs>
  <title>Commodity</title>
  <g id="Layer_2" data-name="Layer 2">
    <g id="Layer_1-2" data-name="Layer 1">
      <g>
        <rect class="cls-1" width="116.53479" height="86.85136"/>
        <rect class="cls-1" width="116.53479" height="86.85136"/>
        <g>
          <g>
            <circle class="cls-2" cx="50.47478" cy="43.35234" r="9.38233"/>
            <g>
              <path class="cls-3" d="M53.27847,22.35786a9.28946,9.28946,0,0,0-2.75938,7.72431L55.761,24.84042l5.24167-5.24185A9.2891,9.2891,0,0,0,53.27847,22.35786Z"/>
              <path class="cls-3" d="M59.79822,28.87778a9.28947,9.28947,0,0,0,2.75937-7.72431l-5.24193,5.24176L52.074,31.63707A9.28913,9.28913,0,0,0,59.79822,28.87778Z"/>
            </g>
            <g>
              <path class="cls-3" d="M47.78311,19.235a9.28948,9.28948,0,0,0-7.72432-2.75938l5.24176,5.24193,5.24184,5.24167A9.28907,9.28907,0,0,0,47.78311,19.235Z"/>
              <path class="cls-3" d="M41.26319,25.75471a9.28946,9.28946,0,0,0,7.72431,2.75938l-5.24176-5.24193L38.5039,18.03049A9.28906,9.28906,0,0,0,41.26319,25.75471Z"/>
            </g>
          </g>
          <g>
            <circle class="cls-4" cx="65.69315" cy="50.78275" r="9.38233"/>
            <g>
              <path class="cls-3" d="M68.49683,29.78827a9.28947,9.28947,0,0,0-2.75937,7.72431l5.24193-5.24175L76.22106,27.029A9.28913,9.28913,0,0,0,68.49683,29.78827Z"/>
              <path class="cls-3" d="M75.01658,36.30819A9.2895,9.2895,0,0,0,77.776,28.58388L72.534,33.82564l-5.24168,5.24184A9.28912,9.28912,0,0,0,75.01658,36.30819Z"/>
            </g>
          </g>
        </g>
      </g>
    </g>
  </g>
</svg>
