<svg xmlns="https://www.w3.org/2000/svg" viewBox="0 0 116.53479 86.85136">
  <defs>
    <style>
      .cls-1 {
        fill: none;
      }

      .cls-2 {
        fill: #83c225;
      }

      .cls-3 {
        fill: #c42c28;
      }

      .cls-4 {
        fill: #e77716;
      }

      .cls-5 {
        fill: #0a6994;
      }

      .cls-6 {
        fill: #f8c300;
      }
    </style>
  </defs>
  <title>Streamlined Inspections</title>
  <g id="Layer_2" data-name="Layer 2">
    <g id="Layer_1-2" data-name="Layer 1">
      <g>
        <rect class="cls-1" width="116.53479" height="86.85136"/>
        <rect class="cls-1" width="116.53479" height="86.85136"/>
        <g>
          <path class="cls-2" d="M59.34484,44.52483H52.06091V57.16826H64.70434V50.47417A11.541,11.541,0,0,1,59.34484,44.52483Z"/>
          <path class="cls-3" d="M64.70434,30.08086v-.50818H52.06091V42.21624h6.64044a11.41,11.41,0,0,1,6.003-12.13538Z"/>
          <path class="cls-4" d="M70.03778,51.78948a11.49211,11.49211,0,0,1-3.14765-.44678v5.82556H79.53357V46.78094A11.49612,11.49612,0,0,1,70.03778,51.78948Z"/>
          <path class="cls-4" d="M37.21893,43.17669A11.51741,11.51741,0,0,1,43.89,57.25554h5.97247V29.59588H37.21893Z"/>
          <polygon class="cls-3" points="83.271 22.334 81.738 23.843 81.704 23.877 86.442 28.615 86.476 28.581 87.984 27.048 87.984 27.048 83.271 22.334"/>
          <path class="cls-5" d="M79.03558,33.10821a11.37284,11.37284,0,0,0-3.64783-3.01075A11.50452,11.50452,0,0,0,58.52569,40.27752a11.53706,11.53706,0,0,0,.17566,1.93872,11.41848,11.41848,0,0,0,.64349,2.30859,11.541,11.541,0,0,0,5.3595,5.94934,11.49561,11.49561,0,0,0,15.51825-15.537A11.59032,11.59032,0,0,0,79.03558,33.10821ZM73.91809,48.74553a9.21016,9.21016,0,0,1-2.00336.65625,9.42029,9.42029,0,0,1-2.82922.14112c-.07233-.00733-.14179-.02368-.21369-.03259a9.37372,9.37372,0,0,1-3.4884-1.174c-.23261-.13464-.45984-.27673-.67908-.43041a9.34555,9.34555,0,0,1-2.94848-3.38111,9.23494,9.23494,0,0,1-.82648-2.30859,9.34431,9.34431,0,0,1,3.775-9.56726,9.43551,9.43551,0,0,1,.991-.60694,9.20973,9.20973,0,0,1,3.39014-1.0299,9.44,9.44,0,0,1,.95227-.0481q.39651,0,.78454.033a9.20021,9.20021,0,0,1,2.233.47192,9.3204,9.3204,0,0,1,2.00037.9729q.31036.19959.6037.42261a9.35709,9.35709,0,0,1,1.80932,1.81543c.16742.22192.32264.45313.47016.6897.04272.06836.08148.1394.12244.209.103.17517.20172.353.29351.53516.03937.07812.07721.157.11444.2362q.1344.28656.24927.58387c.02606.067.05377.1333.07831.201.09613.2655.17572.53845.24707.81457h.00885a9.3039,9.3039,0,0,1,.20154,1.03711c.01031.07312.019.14636.02771.22a9.06444,9.06444,0,0,1-.9624,5.31836,9.3724,9.3724,0,0,1-3.70667,3.86475Q74.27408,48.58148,73.91809,48.74553Z"/>
          <path class="cls-5" d="M80.08184,25.47478l-3.09948,3.05237a13.951,13.951,0,0,1,1.57592,1.07922c.0719.05738.13477.12525.20557.18409l.00049.00048a13.67789,13.67789,0,0,1,1.76538,1.76783c.05994.072.12891.13647.18726.20971a13.89359,13.89359,0,0,1,1.07544,1.57288l.45751-.465,4.19214-4.2611-4.738-4.73792Z"/>
          <polygon class="cls-5" points="93.842 21.093 89.222 16.473 83.271 22.334 87.984 27.048 93.842 21.093"/>
          <path class="cls-2" d="M65.38342,37.94939H61.02948a9.30134,9.30134,0,0,0,3.67486,9.95655c.21924.15368.44647.29577.67908.43041v-10.387Z"/>
          <path class="cls-6" d="M78.31958,44.52483a9.06444,9.06444,0,0,0,.9624-5.31836c-.00867-.07361-.0174-.14685-.02771-.22a9.3039,9.3039,0,0,0-.20154-1.03711H68.87182V49.51031c.0719.00891.14136.02526.21369.03259a9.42029,9.42029,0,0,0,2.82922-.14112,9.21016,9.21016,0,0,0,2.00336-.65625q.35577-.1637.69482-.35595A9.3724,9.3724,0,0,0,78.31958,44.52483Z"/>
          <polygon class="cls-3" points="21.197 37.403 19.664 35.894 14.95 40.608 16.459 42.14 16.493 42.174 21.231 37.437 21.197 37.403"/>
          <path class="cls-5" d="M37.21893,43.17669a11.42981,11.42981,0,0,0-9.66589.47925,11.37824,11.37824,0,0,0-4.83973,4.835,11.50576,11.50576,0,1,0,14.50562-5.31421Zm2.67639,16.79162A9.30324,9.30324,0,0,1,23.628,54.79314a9.424,9.424,0,0,1-.0481-.95239,9.22485,9.22485,0,0,1,1.10248-4.38086,9.37644,9.37644,0,0,1,2.61334-3.05,9.26608,9.26608,0,0,1,4.97907-1.85644c.20489-.01368.41021-.02588.61859-.02588a9.30279,9.30279,0,0,1,9.20617,7.895,9.3895,9.3895,0,0,1,.1073,1.41821v.00012a9.3541,9.3541,0,0,1-.1892,1.877,9.4457,9.4457,0,0,1-2.12232,4.25049Z"/>
          <path class="cls-5" d="M22.40631,45.11468l.00049-.00049a13.69238,13.69238,0,0,1,1.76782-1.76538c.072-.05982.13647-.12891.20971-.18726a13.89359,13.89359,0,0,1,1.57288-1.07544l-.465-.45752-4.2611-4.19214-.00006.00012-4.73786,4.73792,1.59747,1.62231L21.143,46.89617a13.94991,13.94991,0,0,1,1.07923-1.57593C22.2796,45.24846,22.34747,45.18548,22.40631,45.11468Z"/>
          <polygon class="cls-5" points="13.709 30.036 9.089 34.656 14.95 40.608 19.664 35.894 13.709 30.036"/>
          <path class="cls-6" d="M42.20684,53.84087v-.00012a9.3895,9.3895,0,0,0-.1073-1.41821,9.32751,9.32751,0,0,0-9.20617-7.895c-.20838,0-.4137.0122-.61859.02588V59.96831h7.62054a9.23066,9.23066,0,0,0,2.31152-6.12744Z"/>
        </g>
      </g>
    </g>
  </g>
</svg>
