<svg xmlns="https://www.w3.org/2000/svg" viewBox="0 0 116.53479 86.85136">
  <defs>
    <style>
      .cls-1 {
        fill: none;
      }

      .cls-2 {
        fill: #e6e6e6;
      }

      .cls-3 {
        fill: #fff;
      }

      .cls-4 {
        fill: #c42c28;
      }

      .cls-5 {
        fill: #da251d;
      }
    </style>
  </defs>
  <title>Tracking</title>
  <g id="Layer_2" data-name="Layer 2">
    <g id="Layer_1-2" data-name="Layer 1">
      <g>
        <rect class="cls-1" width="116.53479" height="86.85136"/>
        <g>
          <path class="cls-2" d="M58.49807,29.58794c-.07849.00012-.15247.00439-.23059.00488-.07813-.00049-.1521-.00476-.23059-.00488-21.266.0335-28.22254,13.35839-28.4347,13.71234.21216.35394,7.16871,13.67883,28.4347,13.71234.07849-.00012.15246-.0044.23059-.00488.07812.00048.1521.00476.23059.00488,21.266-.03351,28.22253-13.3584,28.43469-13.71234C86.7206,42.94633,79.76406,29.62144,58.49807,29.58794ZM58.26772,55.036h-.00049a11.61018,11.61018,0,0,1-11.6101-11.61036c0-.04229.00586-.08313.00634-.12536a11.56958,11.56958,0,0,1,3.43689-8.12317c.014-.01386.02967-.02588.0437-.03967.24866-.24372.50623-.4784.77588-.69916.03736-.03064.07825-.05664.11609-.08679.25049-.19983.5055-.394.77222-.573.064-.043.1333-.07862.19824-.12036.24634-.15827.49414-.31433.75269-.454.09814-.053.20263-.09534.30236-.14563.233-.11725.46485-.23633.70643-.338.135-.05682.27661-.09979.41418-.15161.21448-.08081.42639-.16693.64685-.23517.1781-.05523.36328-.09338.54492-.14013.18738-.04816.37134-.10474.56226-.14362.22607-.04614.459-.07263.6897-.10535.15356-.02178.30358-.05389.459-.06958a11.74519,11.74519,0,0,1,2.36523,0c.1554.01569.30542.0478.459.06958.23071.03272.46362.05921.6897.10535.19091.03888.37487.09546.56225.14362.18164.04675.36682.0849.54492.14013.22046.06824.43238.15436.64685.23517.13758.05182.27918.09479.41419.15161.24158.10169.47339.22077.70642.338.09973.05029.20422.09265.30237.14563.25854.13971.50635.29577.75268.454.06494.04174.13428.07733.19825.12036.26672.179.52172.37317.77221.573.03784.03015.07874.05615.11609.08679.26965.22076.52722.45544.77588.69916.014.01379.02966.02581.0437.03967a11.5695,11.5695,0,0,1,3.43689,8.12317c.00049.04223.00635.08307.00635.12536A11.61018,11.61018,0,0,1,58.26772,55.036Z"/>
          <path class="cls-3" d="M66.43459,35.17711c-.014-.01386-.02966-.02588-.0437-.03967-.24866-.24372-.50623-.4784-.77588-.69916-.03735-.03064-.07825-.05664-.11609-.08679-.25049-.19983-.50549-.394-.77221-.573-.064-.043-.13331-.07862-.19825-.12036-.24633-.15827-.49414-.31433-.75268-.454-.09815-.053-.20264-.09534-.30237-.14563-.233-.11725-.46484-.23633-.70642-.338-.135-.05682-.27661-.09979-.41419-.15161-.21447-.08081-.42639-.16693-.64685-.23517-.1781-.05523-.36328-.09338-.54492-.14013-.18738-.04816-.37134-.10474-.56225-.14362-.22608-.04614-.459-.07263-.6897-.10535-.15357-.02178-.30359-.05389-.459-.06958a11.74519,11.74519,0,0,0-2.36523,0c-.1554.01569-.30542.0478-.459.06958-.23072.03272-.46363.05921-.6897.10535-.19092.03888-.37488.09546-.56226.14362-.18164.04675-.36682.0849-.54492.14013-.22046.06824-.43237.15436-.64685.23517-.13757.05182-.27917.09479-.41418.15161-.24158.10169-.47339.22077-.70643.338-.09973.05029-.20422.09265-.30236.14563-.25855.13971-.50635.29577-.75269.454-.06494.04174-.13428.07733-.19824.12036-.26672.179-.52173.37317-.77222.573-.03784.03015-.07873.05615-.11609.08679-.26965.22076-.52722.45544-.77588.69916-.014.01379-.02966.02581-.0437.03967a11.56958,11.56958,0,0,0-3.43689,8.12317c-.00048.04223-.00634.08307-.00634.12536A11.61018,11.61018,0,0,0,58.26723,55.036h.00049A11.61018,11.61018,0,0,0,69.87783,43.42564c0-.04229-.00586-.08313-.00635-.12536A11.5695,11.5695,0,0,0,66.43459,35.17711ZM58.26772,52.75755h-.00049a9.332,9.332,0,1,1,.00049,0Z"/>
          <g>
            <path class="cls-4" d="M58.26745,34.09378a9.32127,9.32127,0,0,0-7.36889,15.04351L63.99231,36.06674A9.28164,9.28164,0,0,0,58.26745,34.09378Z"/>
            <path class="cls-5" d="M63.99231,36.06674,50.89856,49.13729a9.30765,9.30765,0,0,0,7.36865,3.62024h.00049a9.32467,9.32467,0,0,0,5.72461-16.69079Z"/>
          </g>
        </g>
      </g>
    </g>
  </g>
</svg>
