<svg xmlns="https://www.w3.org/2000/svg" xmlns:xlink="https://www.w3.org/1999/xlink" viewBox="0 0 116.53479 86.85136">
  <defs>
    <style>
      .cls-1 {
        fill: none;
      }

      .cls-2 {
        fill: #f8c300;
      }

      .cls-3 {
        fill: gray;
      }

      .cls-4 {
        fill: #fff;
      }

      .cls-5 {
        fill: #c42c28;
      }

      .cls-6 {
        clip-path: url(#clip-path);
      }

      .cls-7 {
        fill: #0a6994;
      }

      .cls-8 {
        fill: #83c225;
      }
    </style>
    <clipPath id="clip-path">
      <path class="cls-1" d="M67.54929,36.7674a9.34012,9.34012,0,1,0,1.80933,1.81542A9.35765,9.35765,0,0,0,67.54929,36.7674Z"/>
    </clipPath>
  </defs>
  <title>Transparent Logistics</title>
  <g id="Layer_2" data-name="Layer 2">
    <g id="Layer_1-2" data-name="Layer 1">
      <g>
        <rect class="cls-1" width="116.53479" height="86.85136"/>
        <rect class="cls-1" width="116.53479" height="86.85136"/>
        <g>
          <g>
            <polygon class="cls-2" points="33.305 43.255 58.294 68.245 75.901 50.638 77.486 49.054 77.486 49.054 79.07 47.469 60.015 28.451 50.911 37.554 41.791 28.435 30.138 40.088 31.721 41.671 33.305 43.255"/>
            <g>
              <polygon class="cls-3" points="67.21 62.496 58.294 71.411 31.721 44.838 30.138 46.421 58.294 74.578 79.07 53.802 77.486 52.22 67.21 62.496"/>
              <polygon class="cls-3" points="57.782 27.484 44.006 27.484 50.901 34.366 57.782 27.484"/>
            </g>
          </g>
          <g>
            <polygon class="cls-4" points="63.122 39.867 61.602 38.339 48.171 51.771 49.719 53.327 63.122 39.867"/>
            <polygon class="cls-4" points="65.965 42.742 64.445 41.214 51.023 54.637 52.571 56.192 65.965 42.742"/>
            <polygon class="cls-4" points="60.268 37.013 58.748 35.485 45.316 48.917 46.864 50.472 60.268 37.013"/>
            <polygon class="cls-4" points="68.824 45.601 67.304 44.073 53.875 57.503 55.423 59.058 68.824 45.601"/>
          </g>
          <g>
            <path class="cls-1" d="M61.92767,34.867a9.33694,9.33694,0,1,0,5.62159,1.90039A9.31344,9.31344,0,0,0,61.92767,34.867Z"/>
            <polygon class="cls-5" points="78.366 32.484 73.628 27.746 73.594 27.78 78.332 32.518 78.366 32.484 79.874 30.951 75.161 26.237 73.628 27.746 78.366 32.484"/>
            <g>
              <path class="cls-2" d="M67.54929,36.7674a9.34012,9.34012,0,1,0,1.80933,1.81542A9.35765,9.35765,0,0,0,67.54929,36.7674Z"/>
              <g class="cls-6">
                <g>
                  <polygon class="cls-4" points="63.159 39.058 60.513 36.398 34.662 62.249 37.324 65.002 63.159 39.058"/>
                  <polygon class="cls-4" points="68.11 44.065 65.463 41.404 39.613 67.255 42.274 70.008 68.11 44.065"/>
                  <polygon class="cls-4" points="73.088 49.043 70.442 46.383 44.591 72.234 47.253 74.987 73.088 49.043"/>
                </g>
              </g>
              <path class="cls-7" d="M70.92551,37.01117a11.37262,11.37262,0,0,0-3.64783-3.01074,11.54725,11.54725,0,1,0,4.83484,4.83972A11.59078,11.59078,0,0,0,70.92551,37.01117ZM61.92771,53.494a9.301,9.301,0,1,1,9.31335-9.31348A9.3135,9.3135,0,0,1,61.92771,53.494Z"/>
              <path class="cls-7" d="M73.594,27.78033l-1.62219,1.59748-3.09949,3.05231a13.9494,13.9494,0,0,1,1.57593,1.07922c.0719.05737.13476.12524.20556.18408l.00049.00049a13.67655,13.67655,0,0,1,1.76538,1.76782c.05994.072.12891.13648.18726.20972a13.89258,13.89258,0,0,1,1.07544,1.57287l.45752-.465L78.332,32.51825Z"/>
              <polygon class="cls-7" points="81.112 20.376 75.161 26.237 79.874 30.951 85.732 24.996 81.112 20.376"/>
            </g>
          </g>
          <g>
            <circle class="cls-8" cx="65.965" cy="20.90969" r="5.17625"/>
            <polygon class="cls-4" points="69.326 19.055 68.549 18.278 64.874 21.987 63.387 20.5 62.604 21.281 64.874 23.542 69.326 19.055"/>
          </g>
        </g>
      </g>
    </g>
  </g>
</svg>
