<svg xmlns="http://www.w3.org/2000/svg" width="15" height="15" viewBox="0 0 15 15">
    <defs>
        <style>
            .cls-1{fill:#83c225}.cls-2{fill:#4788c7}.cls-3{fill:none;stroke:#fff;stroke-miterlimit:10;stroke-width:2px}
        </style>
    </defs>
    <g id="icons8-ok" transform="translate(-1 -1)">
        <path id="Path_23" d="M8.764 16.027a7.264 7.264 0 1 1 7.264-7.264 7.273 7.273 0 0 1-7.264 7.264z" class="cls-1" data-name="Path 23" transform="translate(-.264 -.264)"/>
        <path id="Path_24" d="M8.5 1.395A7.105 7.105 0 1 1 1.395 8.5 7.113 7.113 0 0 1 8.5 1.395M8.5 1A7.5 7.5 0 1 0 16 8.5 7.5 7.5 0 0 0 8.5 1z" class="cls-2" data-name="Path 24"/>
        <path id="Path_25" d="M11 16.31l2.837 2.837L19.984 13" class="cls-3" data-name="Path 25" transform="translate(-6.834 -7.751)"/>
    </g>
</svg>
