<svg xmlns="http://www.w3.org/2000/svg" width="67.6" height="77.177" viewBox="0 0 67.6 77.177">
    <defs>
        <style>
            .cls-1{fill:#83c225}
        </style>
    </defs>
    <g id="noun_contract_95047" transform="translate(-17.276 -10.154)">
        <path id="Path_202" d="M53.666 15.917H33.108v5.035h20.558zm-1.093 3.942H34.2v-2.85h18.373z" class="cls-1" data-name="Path 202" transform="translate(1.311 -.991)"/>
        <path id="Rectangle_124" d="M0 0h15.494v1.093H0z" class="cls-1" data-name="Rectangle 124" transform="translate(21.17 27.992)"/>
        <path id="Rectangle_125" d="M0 0h37.987v1.093H0z" class="cls-1" data-name="Rectangle 125" transform="translate(21.17 32.917)"/>
        <path id="Rectangle_126" d="M0 0h37.987v1.092H0z" class="cls-1" data-name="Rectangle 126" transform="translate(21.17 37.843)"/>
        <path id="Rectangle_127" d="M0 0h37.987v1.094H0z" class="cls-1" data-name="Rectangle 127" transform="translate(21.17 42.766)"/>
        <path id="Rectangle_128" d="M0 0h37.987v1.092H0z" class="cls-1" data-name="Rectangle 128" transform="translate(21.17 47.693)"/>
        <path id="Rectangle_129" d="M0 0h37.987v1.092H0z" class="cls-1" data-name="Rectangle 129" transform="translate(21.17 52.619)"/>
        <path id="Rectangle_130" d="M0 0h37.987v1.093H0z" class="cls-1" data-name="Rectangle 130" transform="translate(21.17 57.542)"/>
        <path id="Rectangle_131" d="M0 0h37.987v1.092H0z" class="cls-1" data-name="Rectangle 131" transform="translate(21.17 62.468)"/>
        <path id="Rectangle_132" d="M0 0h20.449v1.092H0z" class="cls-1" data-name="Rectangle 132" transform="translate(21.17 67.392)"/>
        <path id="Path_203" d="M84.758 56.993L83.3 55.068a.477.477 0 0 0-.72-.068l-1.48 1.369-.347-.455a.635.635 0 0 0-.958-.094l-6.586 6.1V10.154H17.276v77.177h55.933V70.182l10.267-9.507a.81.81 0 0 0 .085-1.061l-.348-.457 1.48-1.37a.609.609 0 0 0 .065-.794zm-13.72 27.935H19.449V12.556h51.589V63.93l-8.77 8.121a.807.807 0 0 0-.214.787L57.877 79.3a.82.82 0 0 0 .033.922.639.639 0 0 0 .814.2l6.489-3.414a.624.624 0 0 0 .734-.1l5.091-4.715v12.735zm-6.783-9.086l-3.738 1.968 2.405-3.723zm18.3-17.55l-.8-1.059 1.088-1.007.8 1.058z" class="cls-1" data-name="Path 203"/>
        <g id="Group_430" data-name="Group 430" transform="translate(51.158 79.443)">
            <g id="Group_429" data-name="Group 429">
                <path id="Path_204" d="M54.148 73.788l2.24-1.778c.462-.367-.141-1.133-.628-.813-.839.551-1.624 1.185-2.409 1.808h.733c-.785-.623-1.57-1.257-2.409-1.808-.487-.32-1.089.446-.628.813l2.24 1.778v-.733c-.757.608-1.536 1.207-2.24 1.879-.494.472.224 1.136.733.733l2.3-1.828h-.733q1.153.913 2.3 1.828c.509.4 1.226-.26.733-.733-.7-.672-1.483-1.27-2.24-1.879-.515-.413-1.253.315-.733.733.758.608 1.537 1.207 2.24 1.879l.733-.733q-1.153-.913-2.3-1.828a.541.541 0 0 0-.733 0l-2.3 1.828.733.733c.7-.672 1.482-1.27 2.24-1.879a.516.516 0 0 0 0-.733l-2.24-1.778-.628.813c.765.5 1.482 1.077 2.2 1.646a.541.541 0 0 0 .733 0c.716-.57 1.433-1.143 2.2-1.646l-.628-.813-2.24 1.778c-.524.416.213 1.145.731.733z" class="cls-1" data-name="Path 204" transform="translate(-50.881 -71.121)"/>
            </g>
        </g>
        <path id="Rectangle_133" d="M0 0h6.786v1.092H0z" class="cls-1" data-name="Rectangle 133" transform="translate(21.17 75.759)"/>
    </g>
</svg>
