<svg xmlns="http://www.w3.org/2000/svg" width="96.309" height="106.804" viewBox="0 0 96.309 106.804">
    <defs>
        <style>
            .cls-1{fill:#83c225}
        </style>
    </defs>
    <g id="Group_526" data-name="Group 526" transform="translate(-933.666 -411.906)">
        <path id="Path_128" d="M103.329 115.934H16.068a4.524 4.524 0 0 1-4.47-5.215l12.735-82.4a.824.824 0 0 1 .814-.7h69.1a.824.824 0 0 1 .814.7l12.735 82.4a4.524 4.524 0 0 1-4.47 5.215zM25.853 29.27l-12.627 81.7a2.876 2.876 0 0 0 2.842 3.316h87.261a2.876 2.876 0 0 0 2.842-3.316l-12.627-81.7H25.853z" class="cls-1" data-name="Path 128" transform="translate(922.122 402.776)"/>
        <path id="Path_129" d="M66.03 80.282a18.579 18.579 0 0 1-18.558-18.557V48.958a.824.824 0 1 1 1.648 0v12.767a16.91 16.91 0 0 0 33.82 0V48.958a.824.824 0 0 1 1.648 0v12.767A18.579 18.579 0 0 1 66.03 80.282z" class="cls-1" data-name="Path 129" transform="translate(915.79 399.161)"/>
        <path id="Path_130" d="M47.5 48.2a4.531 4.531 0 1 1 4.532-4.531A4.536 4.536 0 0 1 47.5 48.2zm0-7.415a2.884 2.884 0 1 0 2.884 2.884A2.887 2.887 0 0 0 47.5 40.78z" class="cls-1" data-name="Path 130" transform="translate(916.583 400.748)"/>
        <path id="Path_131" d="M90.558 48.2a4.531 4.531 0 1 1 4.532-4.531 4.536 4.536 0 0 1-4.532 4.531zm0-7.415a2.884 2.884 0 1 0 2.884 2.884 2.887 2.887 0 0 0-2.884-2.889z" class="cls-1" data-name="Path 131" transform="translate(908.996 400.748)"/>
        <path id="Path_132" d="M78.264 25.314a.824.824 0 0 1-.773-.543L51.305 7.141 39.314 24.95a.824.824 0 1 1-1.367-.92L50.4 5.537a.824.824 0 0 1 1.144-.223l27.269 18.361a.824.824 0 0 1 .225 1.14l-.088.132a.823.823 0 0 1-.686.367z" class="cls-1" data-name="Path 132" transform="translate(917.493 406.732)"/>
        <path id="Path_133" d="M97.826 26.693a.823.823 0 0 1-.684-.364L89.488 14.96l-10.314 6.946a.824.824 0 1 1-.92-1.367l11-7.406a.824.824 0 0 1 1.144.223l8.114 12.052a.824.824 0 0 1-.683 1.284z" class="cls-1" data-name="Path 133" transform="translate(910.43 405.354)"/>
        <path id="Path_134" d="M106.073 120.14H13.844a.824.824 0 1 1 0-1.648h92.229a.824.824 0 1 1 0 1.648z" class="cls-1" data-name="Path 134" transform="translate(921.861 386.762)"/>
    </g>
</svg>
