<svg xmlns="http://www.w3.org/2000/svg" width="73.458" height="93.01" viewBox="0 0 73.458 93.01">
    <defs>
        <style>
            .cls-1{fill:none;stroke:#83c225;stroke-linecap:round;stroke-linejoin:round;stroke-width:2px}
        </style>
    </defs>
    <g id="Group_525" data-name="Group 525" transform="translate(-363.806 -426.537)">
        <g id="Group_524" data-name="Group 524">
            <path id="Path_123" d="M29.5 74.785V.5l5.7 7.6 8.5-6.419 4.737 6.5 6.521-6.3 3.958 6.333 7.1-6.069 5.2 5.968 7.451-6.22L83.5 8.064l5.755-5.981 4.963 5.742 6.45-7.187V91.51l-71.458-.327z" class="cls-1" data-name="Path 123" transform="translate(335.596 427.037)"/>
            <path id="Path_124" d="M39.25 39.23l46.68.49z" class="cls-1" data-name="Path 124" transform="translate(338.171 413.563)"/>
            <path id="Path_125" d="M38.79 50.56l46.755.716z" class="cls-1" data-name="Path 125" transform="translate(338.053 416.47)"/>
            <path id="Path_126" d="M38.2 61.49l47.044.917z" class="cls-1" data-name="Path 126" transform="translate(337.902 419.274)"/>
            <path id="Path_127" d="M38 71.41l47.031.93z" class="cls-1" data-name="Path 127" transform="translate(337.851 421.818)"/>
        </g>
    </g>
</svg>
