<svg xmlns="http://www.w3.org/2000/svg" width="20.352" height="20.352" viewBox="0 0 20.352 20.352">
    <defs>
        <style>
            .cls-1{opacity:.3}.cls-2{fill:#2972b7}
        </style>
    </defs>
    <g id="spaceship" class="cls-1">
        <path id="Shape" d="M18.382 0a18.661 18.661 0 0 0-9.317 3 6.808 6.808 0 0 0-7.932 1.5A13.308 13.308 0 0 0 0 5.877L3.148 9c-.881 1.5-1.385 2.5-1.385 2.5l5.162 5.127a13.929 13.929 0 0 0 2.518-1.376l3.148 3.126a3.93 3.93 0 0 0 1.385-1.125 7.3 7.3 0 0 0 1.511-8A20.115 20.115 0 0 0 18.382 0z" class="cls-2" transform="translate(1.97)"/>
        <path id="Shape-2" d="M.812.783a2.524 2.524 0 0 1 3.656 0 2.524 2.524 0 0 1 0 3.656c-1.045 1.045-4.44.783-4.44.783S-.232 1.7.812.783z" class="cls-2" data-name="Shape" transform="translate(0 15.1)"/>
    </g>
</svg>
