<svg xmlns="http://www.w3.org/2000/svg" width="94.336" height="94.342" viewBox="0 0 94.336 94.342">
    <defs>
        <style>
            .cls-1{fill:#83c225}
        </style>
    </defs>
    <g id="noun_Checkbox_768226" transform="translate(-17.059 -3.187)">
        <g id="Group_528" data-name="Group 528" transform="translate(17.059 3.187)">
            <path id="Path_238" d="M54.742 8.692l-30.013 36.6-15.351-16.12a1.155 1.155 0 0 0-1.67 1.6l16.256 17.059a1.15 1.15 0 0 0 .835.359h.043a1.145 1.145 0 0 0 .851-.423l30.842-37.608a1.158 1.158 0 0 0-1.793-1.467z" class="cls-1" data-name="Path 238" transform="translate(15.084 18.944)"/>
            <path id="Path_239" d="M83.7 17.024A47.149 47.149 0 1 0 97.523 50.36 46.878 46.878 0 0 0 83.7 17.024zM50.366 95.216A44.836 44.836 0 1 1 95.211 50.36a44.9 44.9 0 0 1-44.845 44.856z" class="cls-1" data-name="Path 239" transform="translate(-3.187 -3.187)"/>
        </g>
    </g>
</svg>
