<svg xmlns="https://www.w3.org/2000/svg" viewBox="0 0 116.53479 86.85136">
  <defs>
    <style>
      .cls-1 {
        fill: none;
      }

      .cls-2 {
        fill: #f6d500;
      }

      .cls-3 {
        fill: #e77716;
      }

      .cls-4 {
        fill: #83c225;
      }
    </style>
  </defs>
  <title>Aggregator</title>
  <g id="Layer_2" data-name="Layer 2">
    <g id="Layer_1-2" data-name="Layer 1">
      <g>
        <rect class="cls-1" width="116.53479" height="86.85136"/>
        <rect class="cls-1" width="116.53479" height="86.85136"/>
        <g>
          <g>
            <polygon class="cls-2" points="37.576 65.74 43.3 71.532 56.513 58.319 50.758 52.416 37.576 65.74"/>
            <polygon class="cls-3" points="52.42 50.803 64.127 50.803 78.938 65.614 73.143 71.477 52.42 50.803"/>
            <circle class="cls-2" cx="58.35624" cy="38.5615" r="10.3525"/>
          </g>
          <polygon class="cls-4" points="86.405 43.357 78.979 35.91 78.951 39.248 73.117 39.335 73.069 47.479 78.945 47.479 78.938 50.803 86.405 43.357"/>
          <polygon class="cls-4" points="30.187 43.426 37.614 50.872 37.642 47.601 43.281 47.516 43.33 39.373 37.648 39.373 37.655 35.979 30.187 43.426"/>
          <polygon class="cls-4" points="38.59 16.241 38.576 26.758 40.909 24.465 44.956 28.393 50.749 22.669 46.731 18.651 49.136 16.256 38.59 16.241"/>
          <polygon class="cls-4" points="77.905 16.304 67.388 16.29 69.682 18.622 65.754 22.67 71.478 28.462 75.496 24.444 77.89 26.849 77.905 16.304"/>
        </g>
      </g>
    </g>
  </g>
</svg>
