<svg xmlns="https://www.w3.org/2000/svg" viewBox="0 0 116.53479 86.85136">
  <defs>
    <style>
      .cls-1 {
        fill: none;
      }

      .cls-2 {
        fill: #c42c28;
      }

      .cls-3 {
        fill: #e6e6e6;
      }

      .cls-4 {
        fill: #da251d;
      }

      .cls-5 {
        fill: gray;
      }
    </style>
  </defs>
  <title>Banking and Insurance Solutions</title>
  <g id="Layer_2" data-name="Layer 2">
    <g id="Layer_1-2" data-name="Layer 1">
      <g>
        <rect class="cls-1" width="116.53479" height="86.85136"/>
        <rect class="cls-1" width="116.53479" height="86.85136"/>
        <g>
          <rect class="cls-2" x="27.40704" y="59.36678" width="61.61791" height="2.19876"/>
          <rect class="cls-3" x="27.40704" y="31.8821" width="61.61791" height="2.19876"/>
          <polygon class="cls-4" points="58.216 27.484 25.211 27.484 25.211 29.683 58.216 29.683 91.221 29.683 91.221 27.484 58.216 27.484"/>
          <polygon class="cls-3" points="42.849 27.484 58.267 12.122 73.645 27.484 42.849 27.484"/>
          <circle class="cls-5" cx="58.2674" cy="21.91221" r="4.10284"/>
          <g>
            <polygon class="cls-3" points="79.386 36.359 79.386 36.28 74.13 36.28 74.13 57.168 79.386 57.168 79.386 57.088 79.386 36.359"/>
            <polygon class="cls-3" points="81.598 36.28 81.598 36.359 81.598 57.088 81.598 57.168 86.853 57.168 86.853 36.28 81.598 36.28"/>
          </g>
          <g>
            <polygon class="cls-3" points="57.161 36.359 57.161 36.28 51.906 36.28 51.906 57.168 57.161 57.168 57.161 57.088 57.161 36.359"/>
            <polygon class="cls-3" points="59.374 36.28 59.374 36.359 59.374 57.088 59.374 57.168 64.629 57.168 64.629 36.28 59.374 36.28"/>
          </g>
          <g>
            <polygon class="cls-3" points="34.92 36.359 34.92 36.28 29.664 36.28 29.664 57.168 34.92 57.168 34.92 57.088 34.92 36.359"/>
            <polygon class="cls-3" points="37.132 36.28 37.132 36.359 37.132 57.088 37.132 57.168 42.387 57.168 42.387 36.28 37.132 36.28"/>
          </g>
        </g>
      </g>
    </g>
  </g>
</svg>
