<svg xmlns="https://www.w3.org/2000/svg" viewBox="0 0 116.53479 86.85136">
  <defs>
    <style>
      .cls-1 {
        fill: none;
      }

      .cls-2 {
        fill: #0a6994;
      }

      .cls-3 {
        fill: #83c225;
      }
    </style>
  </defs>
  <title>Customs Officer</title>
  <g id="Layer_2" data-name="Layer 2">
    <g id="Layer_1-2" data-name="Layer 1">
      <g>
        <rect class="cls-1" width="116.53479" height="86.85136"/>
        <rect class="cls-1" width="116.53479" height="86.85136"/>
        <g>
          <polygon class="cls-2" points="37.536 58.276 43.26 64.069 56.474 50.855 50.718 44.953 37.536 58.276"/>
          <polygon class="cls-2" points="52.273 43.398 64.15 43.398 78.999 58.191 73.057 64.132 52.273 43.398"/>
          <polygon class="cls-3" points="52.401 58.276 58.126 64.069 71.487 50.707 65.647 44.889 52.401 58.276"/>
          <polygon class="cls-3" points="52.401 58.276 58.126 64.069 71.487 50.707 65.647 44.889 52.401 58.276"/>
          <path class="cls-2" d="M68.42707,29.68332H47.86115a10.3526,10.3526,0,1,0,20.56592,0Z"/>
          <polygon class="cls-2" points="65.741 19.586 65.733 19.579 62.635 19.578 53.904 19.576 50.764 19.575 44.954 25.385 46.521 26.959 47.045 27.485 58.247 27.485 69.449 27.485 69.994 26.937 71.54 25.385 65.741 19.586"/>
        </g>
      </g>
    </g>
  </g>
</svg>
