<svg xmlns="https://www.w3.org/2000/svg" viewBox="0 0 116.53479 86.85136">
  <defs>
    <style>
      .cls-1 {
        fill: none;
      }

      .cls-2 {
        fill: #c42c28;
      }

      .cls-3 {
        fill: #e77716;
      }

      .cls-4 {
        fill: #83c225;
      }

      .cls-5 {
        fill: #f6d500;
      }
    </style>
  </defs>
  <title>End User</title>
  <g id="Layer_2" data-name="Layer 2">
    <g id="Layer_1-2" data-name="Layer 1">
      <g>
        <rect class="cls-1" width="116.53479" height="86.85136"/>
        <rect class="cls-1" width="116.53479" height="86.85136"/>
        <g>
          <g>
            <polygon class="cls-2" points="37.477 65.628 43.202 71.421 56.415 58.207 50.66 52.305 37.477 65.628"/>
            <polygon class="cls-3" points="52.214 50.75 63.922 50.75 78.732 65.561 72.938 71.424 52.214 50.75"/>
            <circle class="cls-3" cx="58.08549" cy="38.19918" r="10.3525"/>
          </g>
          <g>
            <g>
              <path class="cls-4" d="M30.655,29.20934l5.24188,5.2417A9.58179,9.58179,0,0,0,25.41327,23.9674Z"/>
              <path class="cls-4" d="M23.8584,25.52233A9.58193,9.58193,0,0,0,34.342,36.006L29.10022,30.764Z"/>
            </g>
            <path class="cls-2" d="M45.19424,47.16419a5.14491,5.14491,0,0,1-2.83472.85187c-.04151,0-.07984-.01123-.1211-.01221a5.14782,5.14782,0,0,1-3.20861-9.09692,9.36448,9.36448,0,1,0,6.19262,8.81427C45.22243,47.53315,45.20522,47.34949,45.19424,47.16419Z"/>
          </g>
          <g>
            <path class="cls-5" d="M80.53066,38.44587a9.408,9.408,0,0,0-1.7146.16369,5.12429,5.12429,0,0,1,.54346,2.26667,5.15041,5.15041,0,0,1-7.85327,4.41009,9.37833,9.37833,0,1,0,9.02441-6.84045Z"/>
            <path class="cls-4" d="M80.57485,34.55805l5.24194-5.24176,5.2417-5.24182A9.5818,9.5818,0,0,0,80.57485,34.55805Z"/>
            <path class="cls-4" d="M82.12978,36.11292A9.58178,9.58178,0,0,0,92.61342,25.62934L87.37148,30.8711Z"/>
            <path class="cls-4" d="M80.59829,31.43506A9.58187,9.58187,0,0,0,70.11465,20.95148l5.24169,5.24188Z"/>
            <path class="cls-4" d="M79.04336,32.98993l-5.24183-5.24188-5.24182-5.2417A9.58171,9.58171,0,0,0,79.04336,32.98993Z"/>
          </g>
        </g>
      </g>
    </g>
  </g>
</svg>
