<svg xmlns="https://www.w3.org/2000/svg" viewBox="0 0 116.53479 86.85136">
  <defs>
    <style>
      .cls-1 {
        fill: none;
      }

      .cls-2 {
        fill: #83c225;
      }
    </style>
  </defs>
  <title>Farm</title>
  <g id="Layer_2" data-name="Layer 2">
    <g id="Layer_1-2" data-name="Layer 1">
      <g>
        <rect class="cls-1" width="116.53479" height="86.85136"/>
        <rect class="cls-1" width="116.53479" height="86.85136"/>
        <g>
          <polygon class="cls-2" points="64.104 35.969 50.764 22.685 44.935 28.508 58.25 41.822 64.104 35.969"/>
          <polygon class="cls-2" points="71.565 28.508 58.267 15.231 52.319 21.13 65.659 34.414 71.565 28.508"/>
          <polygon class="cls-2" points="30.125 43.318 43.38 30.062 49.287 35.969 35.997 49.259 30.125 43.318"/>
          <g>
            <polygon class="cls-2" points="78.964 35.969 50.842 64.097 44.935 58.191 73.12 30.062 78.964 35.969"/>
            <g>
              <polygon class="cls-2" points="52.396 65.652 80.581 37.523 86.399 43.315 58.267 71.488 52.396 65.652"/>
              <rect class="cls-2" x="37.71351" y="42.96123" width="18.7949" height="8.24332" transform="translate(-19.49415 47.10273) rotate(-45)"/>
            </g>
          </g>
        </g>
      </g>
    </g>
  </g>
</svg>
