<svg xmlns="https://www.w3.org/2000/svg" viewBox="0 0 116.53479 86.85136">
  <defs>
    <style>
      .cls-1 {
        fill: none;
      }

      .cls-2 {
        fill: #e6e6e6;
      }

      .cls-3 {
        fill: gray;
      }

      .cls-4 {
        fill: #fff;
      }

      .cls-5 {
        fill: #f8c300;
      }

      .cls-6 {
        fill: #0a6994;
      }

      .cls-7 {
        fill: #83c225;
      }
    </style>
  </defs>
  <title>Flexible Financing</title>
  <g id="Layer_2" data-name="Layer 2">
    <g id="Layer_1-2" data-name="Layer 1">
      <g>
        <rect class="cls-1" width="116.53479" height="86.85136"/>
        <rect class="cls-1" width="116.53479" height="86.85136"/>
        <g>
          <path class="cls-1" d="M32.04749,37.9301l.27478.27472C32.34216,38.22472,32.23218,38.11479,32.04749,37.9301Z"/>
          <path class="cls-2" d="M73.11835,26.95775,59.352,40.69334l-2.19336,2.18848L49.19769,50.825l3.01856,3.00378,1.68542,1.67712-.00079.0008,1.66937,1.66119L57.78,59.36674l7.87329,7.83472L89.59247,43.42558ZM59.832,58.3195,55.319,53.82878l-3.01977-3.005L73.11664,30.05229l3.0083,3.00714,4.48425,4.48273,5.8805,5.8783-20.835,20.69336Z"/>
          <polygon class="cls-3" points="76.125 33.059 55.319 53.829 59.832 58.32 80.609 37.542 76.125 33.059"/>
          <polygon class="cls-4" points="73.117 30.052 52.299 50.824 55.319 53.829 76.125 33.059 73.117 30.052"/>
          <path class="cls-4" d="M86.48969,43.42046l-5.8805-5.8783L59.832,58.3195l5.82276,5.79432Zm-9.11548,2.79638L78.91156,47.789l-5.88891,5.889-1.55481-1.55481Z"/>
          <polygon class="cls-5" points="78.912 47.789 77.374 46.217 71.468 52.123 73.023 53.678 78.912 47.789"/>
          <path class="cls-6" d="M43.38959,20.90965l-3.70722,3.70722,1.55469,1.55475,1.55921,1.5592-4.67768,4.67767c-.03918-.03918-.50219-.50213-1.05981-1.05981l-.49939-.49939L35.2428,29.5327l-.23816-.23816L29.20825,35.0908l.05677.05677,1.498,1.498.77179.77173.21356.21363.29914.29913c.18469.18469.29467.29462.27478.27472l-4.67768,4.67767-.054-.054-.24237-.24237-.34021-.34021-.92273-.92267-.06885-.06885-.56909-.56909c-.5401-.54-.95624-.95624-.91687-.91687l-3.674,3.674L27.612,50.20464l22.538-22.538Z"/>
          <polygon class="cls-3" points="29.204 38.205 27.104 36.106 25.005 34.006 23.446 35.565 25.545 37.665 27.645 39.764 29.204 38.205"/>
          <polygon class="cls-3" points="39.678 27.731 37.578 25.632 35.479 23.532 33.92 25.091 36.019 27.191 38.119 29.29 39.678 27.731"/>
          <rect class="cls-7" x="38.67314" y="43.94822" width="5.20216" height="5.20216" transform="translate(-20.82642 42.81977) rotate(-45.00048)"/>
          <rect class="cls-4" x="33.41134" y="49.21004" width="5.20205" height="5.20214" transform="translate(-26.08821 40.63971) rotate(-45)"/>
          <rect class="cls-4" x="43.96833" y="38.65299" width="5.20216" height="5.20216" transform="translate(-15.53114 45.0131) rotate(-45.00048)"/>
          <rect class="cls-4" x="38.67318" y="54.47188" width="5.20205" height="5.20214" transform="translate(-28.26774 45.90155) rotate(-45)"/>
          <path class="cls-6" d="M52.21625,53.82878,49.19769,50.825l-.00122-.00122L61.26788,38.779l-1.54864-1.54792-6.9823-6.97876v-.01013l-.00415-.00409v.01007l-.999-.99853L29.19458,51.78874l14.195,14.209,1.5592-1.55921.01013.01013,7.39435-7.39434,1.54761-1.54761.00079-.0008Zm-19.88233-2.0177,3.67841-3.67841,3.67847,3.67847-3.67841,3.67841Zm8.94031,8.94031-3.67846-3.67847,3.6784-3.6784L44.95264,57.073Zm0-10.52362L37.5957,46.5493l3.67853-3.67847L44.9527,46.5493Zm1.6167-8.9737,3.67847-3.67846,3.67853,3.67846L46.5694,44.93254Z"/>
        </g>
      </g>
    </g>
  </g>
</svg>
