<svg xmlns="https://www.w3.org/2000/svg" viewBox="0 0 116.53479 86.85136">
  <defs>
    <style>
      .cls-1 {
        fill: none;
      }

      .cls-2 {
        fill: #83c225;
      }

      .cls-3 {
        fill: #fff;
      }

      .cls-4 {
        fill: #f6d500;
      }
    </style>
  </defs>
  <title>Money</title>
  <g id="Layer_2" data-name="Layer 2">
    <g id="Layer_1-2" data-name="Layer 1">
      <g>
        <rect class="cls-1" width="116.53479" height="86.85136"/>
        <rect class="cls-1" width="116.53479" height="86.85136"/>
        <g>
          <line class="cls-1" x1="50.85168" y1="37.50582" x2="52.39326" y2="35.96563"/>
          <line class="cls-1" x1="64.16632" y1="50.79858" x2="65.65141" y2="49.31643"/>
          <line class="cls-1" x1="51.62247" y1="36.76614" x2="64.90886" y2="50.05751"/>
          <g>
            <g>
              <polygon class="cls-2" points="40.606 53.909 42.147 55.453 43.688 56.997 50.807 64.132 72.797 42.185 74.341 40.644 75.886 39.102 77.43 37.561 78.975 36.019 65.651 22.719 37.525 50.82 39.066 52.364 40.606 53.909"/>
              <polygon class="cls-2" points="75.886 42.186 74.341 43.727 50.807 67.215 42.147 58.536 40.606 56.992 39.066 55.448 37.525 56.987 39.066 58.531 40.606 60.075 50.807 70.299 75.886 45.269 77.43 43.728 78.975 42.186 77.43 40.644 75.886 42.186"/>
            </g>
            <circle class="cls-3" cx="58.30638" cy="43.41182" r="7.20515"/>
          </g>
          <circle class="cls-4" cx="78.97502" cy="58.18636" r="7.20515"/>
          <circle class="cls-4" cx="88.01436" cy="28.6268" r="7.20515"/>
          <circle class="cls-4" cx="43.44314" cy="28.58375" r="7.20515"/>
        </g>
      </g>
    </g>
  </g>
</svg>
