<svg xmlns="https://www.w3.org/2000/svg" viewBox="0 0 116.53479 86.85136">
  <defs>
    <style>
      .cls-1 {
        fill: none;
      }

      .cls-2 {
        fill: #0a6994;
      }

      .cls-3 {
        fill: #f6d500;
      }

      .cls-4 {
        fill: #e77716;
      }

      .cls-5 {
        fill: #83c225;
      }

      .cls-6 {
        fill: #f8c300;
      }
    </style>
  </defs>
  <title>Processing Plant</title>
  <g id="Layer_2" data-name="Layer 2">
    <g id="Layer_1-2" data-name="Layer 1">
      <g>
        <rect class="cls-1" width="116.53479" height="86.85136"/>
        <rect class="cls-1" width="116.53479" height="86.85136"/>
        <g>
          <rect class="cls-2" x="29.64377" y="42.99749" width="12.64343" height="14.17495"/>
          <rect class="cls-3" x="44.54107" y="42.99749" width="12.64343" height="14.17495"/>
          <rect class="cls-4" x="59.42254" y="42.99749" width="12.64343" height="14.17495"/>
          <polygon class="cls-5" points="42.287 40.803 42.287 29.683 31.128 40.842 42.287 40.803"/>
          <polygon class="cls-5" points="57.184 40.803 57.184 29.683 46.025 40.842 57.184 40.803"/>
          <polygon class="cls-4" points="72.066 27.485 66.811 27.485 66.811 32.041 66.811 40.752 66.811 40.803 72.066 40.803 72.066 27.485"/>
          <polygon class="cls-4" points="72.066 29.776 72.066 27.485 66.811 27.485 66.811 40.803 72.066 40.803 72.066 40.752 72.066 29.776"/>
          <polygon class="cls-4" points="79.534 29.683 74.278 29.683 74.278 39.086 74.278 57.063 74.278 57.168 79.534 57.168 79.534 29.683"/>
          <path class="cls-6" d="M72.97662,19.86913h.00683l-.07825-.13153c-.03039-.04828-.055-.0998-.08728-.14667l-3.37963-5.67639-3.55884,5.95459H65.9a4.06156,4.06156,0,0,0-.56446,2.04309,4.10279,4.10279,0,1,0,8.20557,0A4.06165,4.06165,0,0,0,72.97662,19.86913Z"/>
        </g>
      </g>
    </g>
  </g>
</svg>
