<svg xmlns="https://www.w3.org/2000/svg" viewBox="0 0 116.53479 86.85136">
  <defs>
    <style>
      .cls-1 {
        fill: none;
      }

      .cls-2 {
        fill: gray;
      }

      .cls-3 {
        fill: #e6e6e6;
      }

      .cls-4 {
        fill: #da251d;
      }
    </style>
  </defs>
  <title>Reduced Paperwork</title>
  <g id="Layer_2" data-name="Layer 2">
    <g id="Layer_1-2" data-name="Layer 1">
      <g>
        <rect class="cls-1" width="116.53479" height="86.85136"/>
        <rect class="cls-1" width="116.53479" height="86.85136"/>
        <g>
          <polygon class="cls-2" points="67.165 62.496 58.25 71.411 31.677 44.838 30.094 46.421 58.25 74.578 79.026 53.802 77.441 52.22 67.165 62.496"/>
          <polygon class="cls-3" points="33.26 43.255 58.25 68.245 75.856 50.638 77.441 49.054 77.441 49.054 79.026 47.469 59.97 28.451 50.866 37.554 41.747 28.435 30.094 40.088 31.677 41.671 33.26 43.255"/>
          <polygon class="cls-2" points="57.738 27.484 43.961 27.484 50.856 34.366 57.738 27.484"/>
          <polygon class="cls-4" points="62.878 45.159 61.348 43.561 58.161 46.78 54.943 43.561 53.37 45.109 53.37 45.109 56.577 48.299 53.37 51.542 54.972 53.073 54.972 53.073 58.197 49.854 61.488 53.249 61.456 53.249 61.488 53.249 63.057 51.675 59.716 48.334 62.878 45.159 62.878 45.159"/>
        </g>
      </g>
    </g>
  </g>
</svg>
